<?xml version="1.0" encoding="utf-8"?>
<!-- Generator: Adobe Illustrator 21.0.0, SVG Export Plug-In . SVG Version: 6.00 Build 0)  -->
<svg version="1.1" id="Livello_1" xmlns="http://www.w3.org/2000/svg" xmlns:xlink="http://www.w3.org/1999/xlink" x="0px" y="0px"
	 viewBox="0 0 205 32" style="enable-background:new 0 0 205 32;" xml:space="preserve">
<style type="text/css">
	.st0{enable-background:new    ;}
</style>
<title>Group</title>
<desc>Created with Sketch.</desc>
<g>
	<g class="st0">
		<path d="M60.1,0.7h6.6v24.1h12.1V31H60.1V0.7z"/>
		<path d="M80.8,15.8c0-2.4,0.4-4.6,1.2-6.6s1.9-3.6,3.3-5s3.1-2.4,5.1-3.2c2-0.7,4.1-1.1,6.4-1.1s4.5,0.4,6.4,1.1
			c2,0.7,3.7,1.8,5.1,3.2s2.5,3.1,3.3,5s1.2,4.2,1.2,6.6s-0.4,4.6-1.2,6.6s-1.9,3.6-3.3,5s-3.1,2.4-5.1,3.2c-2,0.7-4.1,1.1-6.4,1.1
			s-4.5-0.4-6.4-1.1c-2-0.7-3.7-1.8-5.1-3.2c-1.4-1.4-2.5-3.1-3.3-5S80.8,18.2,80.8,15.8z M87.6,15.8c0,1.4,0.2,2.7,0.7,3.9
			s1.1,2.2,1.9,3.1s1.8,1.5,2.9,2s2.4,0.7,3.8,0.7s2.7-0.2,3.8-0.7c1.1-0.5,2.1-1.2,2.9-2c0.8-0.9,1.4-1.9,1.9-3.1
			c0.4-1.2,0.7-2.5,0.7-3.9s-0.2-2.7-0.7-3.9c-0.4-1.2-1.1-2.2-1.9-3.1s-1.8-1.5-2.9-2s-2.4-0.7-3.8-0.7s-2.7,0.2-3.8,0.7
			C92,7.3,91,8,90.2,8.8c-0.8,0.9-1.4,1.9-1.9,3.1C87.8,13.1,87.6,14.4,87.6,15.8z"/>
		<path d="M144.3,28.8c-1.9,1-3.9,1.8-6,2.2c-2.1,0.5-4.2,0.7-6.4,0.7c-2.3,0-4.5-0.4-6.4-1.1s-3.7-1.8-5.1-3.2
			c-1.4-1.4-2.5-3.1-3.3-5s-1.2-4.2-1.2-6.6s0.4-4.6,1.2-6.6s1.9-3.6,3.3-5s3.1-2.4,5.1-3.2c2-0.7,4.1-1.1,6.4-1.1
			c2.4,0,4.6,0.3,6.6,0.9s3.8,1.6,5.3,3L139,8.9c-0.9-0.9-1.9-1.7-3-2.1c-1.1-0.5-2.5-0.7-4.2-0.7c-1.4,0-2.7,0.2-3.8,0.7
			c-1.1,0.5-2.1,1.2-2.9,2c-0.8,0.9-1.4,1.9-1.9,3.1c-0.4,1.2-0.7,2.5-0.7,3.9s0.2,2.7,0.7,3.9c0.4,1.2,1.1,2.2,1.9,3.1
			s1.8,1.5,2.9,2c1.1,0.5,2.4,0.7,3.8,0.7c1.4,0,2.7-0.2,3.7-0.5s1.9-0.7,2.5-1v-4.9h-5.3V13h11.6V28.8z"/>
		<path d="M148.4,15.8c0-2.4,0.4-4.6,1.2-6.6s1.9-3.6,3.3-5c1.4-1.4,3.1-2.4,5.1-3.2c2-0.7,4.1-1.1,6.4-1.1s4.5,0.4,6.4,1.1
			c2,0.7,3.7,1.8,5.1,3.2c1.4,1.4,2.5,3.1,3.3,5s1.2,4.2,1.2,6.6s-0.4,4.6-1.2,6.6s-1.9,3.6-3.3,5c-1.4,1.4-3.1,2.4-5.1,3.2
			c-2,0.7-4.1,1.1-6.4,1.1s-4.5-0.4-6.4-1.1s-3.7-1.8-5.1-3.2c-1.4-1.4-2.5-3.1-3.3-5S148.4,18.2,148.4,15.8z M155.2,15.8
			c0,1.4,0.2,2.7,0.7,3.9c0.4,1.2,1.1,2.2,1.9,3.1c0.8,0.9,1.8,1.5,2.9,2c1.1,0.5,2.4,0.7,3.8,0.7s2.7-0.2,3.8-0.7s2.1-1.2,2.9-2
			c0.8-0.9,1.4-1.9,1.9-3.1c0.4-1.2,0.7-2.5,0.7-3.9s-0.2-2.7-0.7-3.9c-0.4-1.2-1.1-2.2-1.9-3.1c-0.8-0.9-1.8-1.5-2.9-2
			c-1.1-0.5-2.4-0.7-3.8-0.7s-2.7,0.2-3.8,0.7s-2.1,1.2-2.9,2c-0.8,0.9-1.4,1.9-1.9,3.1C155.4,13.1,155.2,14.4,155.2,15.8z"/>
	</g>
	<rect id="Rectangle" y="-0.2" width="57" height="32.2"/>
	<rect id="Rectangle-Copy" x="189" y="-0.2" width="16" height="32.2"/>
</g>
</svg>
